# xmcd
#
# Track frame offsets: 
#        150
#        16305
#        33703
#        46963
#        61100
#        72865
#        95918
#        121887
#        139222
#        170610
#        183309
#        196251
#
# Disc length: 2849 seconds
#
# Revision: 0
# Processed by: cddbd v1.5.2PL0 Copyright (c) Steve Scherf et al.
# Submitted via: ExactAudioCopy v1.2
#
DISCID=a90b1f0c
DTITLE=Rod Piazza - His Instrumentals [CD2]
DYEAR=2018
DGENRE=Blues
TTITLE0=The Teaser
TTITLE1=Westcoaster
TTITLE2=Cold Chill
TTITLE3=Harp Throb
TTITLE4=Ju Ju Cocktail (Live at BB King's)
TTITLE5=Eliminator
TTITLE6=Night's End
TTITLE7=Frankenbop
TTITLE8=Colored Salt
TTITLE9=Con-vo-looted
TTITLE10=Expression Session
TTITLE11=Soul Monster
EXTD=
EXTT0=
EXTT1=
EXTT2=
EXTT3=
EXTT4=
EXTT5=
EXTT6=
EXTT7=
EXTT8=
EXTT9=
EXTT10=
EXTT11=
PLAYORDER=
